<mxfile host="Electron" agent="Mozilla/5.0 (Windows NT 10.0; Win64; x64) AppleWebKit/537.36 (KHTML, like Gecko) draw.io/28.1.2 Chrome/138.0.7204.243 Electron/37.4.0 Safari/537.36" version="28.1.2">
  <diagram name="Page-1" id="2YBvvXClWsGukQMizWep">
    <mxGraphModel dx="1042" dy="626" grid="1" gridSize="10" guides="1" tooltips="1" connect="1" arrows="1" fold="1" page="1" pageScale="1" pageWidth="850" pageHeight="1100" math="0" shadow="0">
      <root>
        <mxCell id="0" />
        <mxCell id="1" parent="0" />
        <mxCell id="1eH0fPws4KTW_NLaS6BD-11" value="Người dùng" style="shape=umlActor;verticalLabelPosition=bottom;verticalAlign=top;html=1;outlineConnect=0;" parent="1" vertex="1">
          <mxGeometry x="50" y="30" width="30" height="60" as="geometry" />
        </mxCell>
        <mxCell id="1eH0fPws4KTW_NLaS6BD-13" value="" style="html=1;points=[[0,0,0,0,5],[0,1,0,0,-5],[1,0,0,0,5],[1,1,0,0,-5]];perimeter=orthogonalPerimeter;outlineConnect=0;targetShapes=umlLifeline;portConstraint=eastwest;newEdgeStyle={&quot;curved&quot;:0,&quot;rounded&quot;:0};" parent="1" vertex="1">
          <mxGeometry x="60" y="120" width="10" height="410" as="geometry" />
        </mxCell>
        <mxCell id="1eH0fPws4KTW_NLaS6BD-15" value="GDTrangChu" style="text;strokeColor=none;fillColor=none;align=left;verticalAlign=top;spacingLeft=4;spacingRight=4;overflow=hidden;rotatable=0;points=[[0,0.5],[1,0.5]];portConstraint=eastwest;whiteSpace=wrap;html=1;" parent="1" vertex="1">
          <mxGeometry x="210" y="24" width="100" height="26" as="geometry" />
        </mxCell>
        <mxCell id="1eH0fPws4KTW_NLaS6BD-16" value="" style="shape=umlLifeline;perimeter=lifelinePerimeter;whiteSpace=wrap;html=1;container=1;dropTarget=0;collapsible=0;recursiveResize=0;outlineConnect=0;portConstraint=eastwest;newEdgeStyle={&quot;curved&quot;:0,&quot;rounded&quot;:0};participant=umlBoundary;" parent="1" vertex="1">
          <mxGeometry x="225" y="50" width="50" height="310" as="geometry" />
        </mxCell>
        <mxCell id="1eH0fPws4KTW_NLaS6BD-19" value="" style="html=1;points=[[0,0,0,0,5],[0,1,0,0,-5],[1,0,0,0,5],[1,1,0,0,-5]];perimeter=orthogonalPerimeter;outlineConnect=0;targetShapes=umlLifeline;portConstraint=eastwest;newEdgeStyle={&quot;curved&quot;:0,&quot;rounded&quot;:0};" parent="1" vertex="1">
          <mxGeometry x="245" y="150" width="10" height="60" as="geometry" />
        </mxCell>
        <mxCell id="1eH0fPws4KTW_NLaS6BD-20" value="1.Chọn đăng nhập" style="html=1;verticalAlign=bottom;startArrow=none;endArrow=block;startSize=8;curved=0;rounded=0;entryX=0;entryY=0;entryDx=0;entryDy=5;startFill=0;" parent="1" source="1eH0fPws4KTW_NLaS6BD-13" target="1eH0fPws4KTW_NLaS6BD-19" edge="1">
          <mxGeometry relative="1" as="geometry">
            <mxPoint x="150" y="165" as="sourcePoint" />
          </mxGeometry>
        </mxCell>
        <mxCell id="1eH0fPws4KTW_NLaS6BD-55" value="" style="shape=umlLifeline;perimeter=lifelinePerimeter;whiteSpace=wrap;html=1;container=1;dropTarget=0;collapsible=0;recursiveResize=0;outlineConnect=0;portConstraint=eastwest;newEdgeStyle={&quot;curved&quot;:0,&quot;rounded&quot;:0};participant=umlBoundary;" parent="1" vertex="1">
          <mxGeometry x="410" y="56" width="50" height="404" as="geometry" />
        </mxCell>
        <mxCell id="1eH0fPws4KTW_NLaS6BD-56" value="" style="html=1;points=[[0,0,0,0,5],[0,1,0,0,-5],[1,0,0,0,5],[1,1,0,0,-5]];perimeter=orthogonalPerimeter;outlineConnect=0;targetShapes=umlLifeline;portConstraint=eastwest;newEdgeStyle={&quot;curved&quot;:0,&quot;rounded&quot;:0};" parent="1eH0fPws4KTW_NLaS6BD-55" vertex="1">
          <mxGeometry x="20" y="134" width="10" height="96" as="geometry" />
        </mxCell>
        <mxCell id="1eH0fPws4KTW_NLaS6BD-59" value="GDDangNhap" style="text;strokeColor=none;fillColor=none;align=left;verticalAlign=top;spacingLeft=4;spacingRight=4;overflow=hidden;rotatable=0;points=[[0,0.5],[1,0.5]];portConstraint=eastwest;whiteSpace=wrap;html=1;" parent="1" vertex="1">
          <mxGeometry x="390" y="30" width="110" height="26" as="geometry" />
        </mxCell>
        <mxCell id="1eH0fPws4KTW_NLaS6BD-83" style="edgeStyle=orthogonalEdgeStyle;rounded=0;orthogonalLoop=1;jettySize=auto;html=1;exitX=0.5;exitY=1;exitDx=0;exitDy=0;" parent="1" edge="1">
          <mxGeometry relative="1" as="geometry">
            <mxPoint x="785" y="490" as="sourcePoint" />
            <mxPoint x="785" y="490" as="targetPoint" />
          </mxGeometry>
        </mxCell>
        <mxCell id="l1M9bcCjxFJwpTehe7LT-5" value="2.Hiển thị giao diện đăng nhập" style="text;strokeColor=none;fillColor=none;align=left;verticalAlign=middle;spacingLeft=4;spacingRight=4;overflow=hidden;points=[[0,0.5],[1,0.5]];portConstraint=eastwest;rotatable=0;whiteSpace=wrap;html=1;" vertex="1" parent="1">
          <mxGeometry x="255" y="165" width="180" height="30" as="geometry" />
        </mxCell>
        <mxCell id="l1M9bcCjxFJwpTehe7LT-7" value="" style="endArrow=classic;html=1;rounded=0;entryX=0;entryY=1;entryDx=0;entryDy=-5;entryPerimeter=0;" edge="1" parent="1">
          <mxGeometry width="50" height="50" relative="1" as="geometry">
            <mxPoint x="70" y="276" as="sourcePoint" />
            <mxPoint x="430" y="276" as="targetPoint" />
          </mxGeometry>
        </mxCell>
        <mxCell id="l1M9bcCjxFJwpTehe7LT-8" value="3.Điền thông tin đăng nhập và chọn đăng nhập." style="text;strokeColor=none;fillColor=none;align=left;verticalAlign=middle;spacingLeft=4;spacingRight=4;overflow=hidden;points=[[0,0.5],[1,0.5]];portConstraint=eastwest;rotatable=0;whiteSpace=wrap;html=1;" vertex="1" parent="1">
          <mxGeometry x="100" y="250" width="290" height="30" as="geometry" />
        </mxCell>
        <mxCell id="l1M9bcCjxFJwpTehe7LT-13" value="" style="shape=umlLifeline;perimeter=lifelinePerimeter;whiteSpace=wrap;html=1;container=1;dropTarget=0;collapsible=0;recursiveResize=0;outlineConnect=0;portConstraint=eastwest;newEdgeStyle={&quot;curved&quot;:0,&quot;rounded&quot;:0};participant=umlControl;" vertex="1" parent="1">
          <mxGeometry x="675" y="50" width="40" height="344" as="geometry" />
        </mxCell>
        <mxCell id="l1M9bcCjxFJwpTehe7LT-14" value="Ctr_DangNhap" style="text;strokeColor=none;fillColor=none;align=left;verticalAlign=top;spacingLeft=4;spacingRight=4;overflow=hidden;rotatable=0;points=[[0,0.5],[1,0.5]];portConstraint=eastwest;whiteSpace=wrap;html=1;" vertex="1" parent="1">
          <mxGeometry x="650" y="24" width="90" height="26" as="geometry" />
        </mxCell>
        <mxCell id="l1M9bcCjxFJwpTehe7LT-15" value="" style="html=1;points=[[0,0,0,0,5],[0,1,0,0,-5],[1,0,0,0,5],[1,1,0,0,-5]];perimeter=orthogonalPerimeter;outlineConnect=0;targetShapes=umlLifeline;portConstraint=eastwest;newEdgeStyle={&quot;curved&quot;:0,&quot;rounded&quot;:0};" vertex="1" parent="1">
          <mxGeometry x="690" y="260" width="10" height="250" as="geometry" />
        </mxCell>
        <mxCell id="l1M9bcCjxFJwpTehe7LT-18" value="" style="endArrow=classic;html=1;rounded=0;" edge="1" parent="1" target="l1M9bcCjxFJwpTehe7LT-15">
          <mxGeometry width="50" height="50" relative="1" as="geometry">
            <mxPoint x="440" y="275" as="sourcePoint" />
            <mxPoint x="590" y="275" as="targetPoint" />
          </mxGeometry>
        </mxCell>
        <mxCell id="l1M9bcCjxFJwpTehe7LT-19" value="4.Xác minh thông tin tài khoản" style="text;strokeColor=none;fillColor=none;align=left;verticalAlign=middle;spacingLeft=4;spacingRight=4;overflow=hidden;points=[[0,0.5],[1,0.5]];portConstraint=eastwest;rotatable=0;whiteSpace=wrap;html=1;" vertex="1" parent="1">
          <mxGeometry x="477.5" y="250" width="180" height="30" as="geometry" />
        </mxCell>
        <mxCell id="l1M9bcCjxFJwpTehe7LT-20" value="" style="shape=umlLifeline;perimeter=lifelinePerimeter;whiteSpace=wrap;html=1;container=1;dropTarget=0;collapsible=0;recursiveResize=0;outlineConnect=0;portConstraint=eastwest;newEdgeStyle={&quot;curved&quot;:0,&quot;rounded&quot;:0};participant=umlEntity;" vertex="1" parent="1">
          <mxGeometry x="865" y="50" width="40" height="210" as="geometry" />
        </mxCell>
        <mxCell id="l1M9bcCjxFJwpTehe7LT-21" value="E_User" style="text;strokeColor=none;fillColor=none;align=left;verticalAlign=top;spacingLeft=4;spacingRight=4;overflow=hidden;rotatable=0;points=[[0,0.5],[1,0.5]];portConstraint=eastwest;whiteSpace=wrap;html=1;" vertex="1" parent="1">
          <mxGeometry x="855" y="24" width="90" height="26" as="geometry" />
        </mxCell>
        <mxCell id="l1M9bcCjxFJwpTehe7LT-22" value="" style="html=1;points=[[0,0,0,0,5],[0,1,0,0,-5],[1,0,0,0,5],[1,1,0,0,-5]];perimeter=orthogonalPerimeter;outlineConnect=0;targetShapes=umlLifeline;portConstraint=eastwest;newEdgeStyle={&quot;curved&quot;:0,&quot;rounded&quot;:0};" vertex="1" parent="1">
          <mxGeometry x="880" y="260" width="10" height="80" as="geometry" />
        </mxCell>
        <mxCell id="l1M9bcCjxFJwpTehe7LT-24" value="" style="endArrow=classic;html=1;rounded=0;" edge="1" parent="1" target="l1M9bcCjxFJwpTehe7LT-22">
          <mxGeometry width="50" height="50" relative="1" as="geometry">
            <mxPoint x="700" y="270" as="sourcePoint" />
            <mxPoint x="875" y="270" as="targetPoint" />
          </mxGeometry>
        </mxCell>
        <mxCell id="l1M9bcCjxFJwpTehe7LT-25" value="4.0.1Get(username,password)" style="text;strokeColor=none;fillColor=none;align=left;verticalAlign=middle;spacingLeft=4;spacingRight=4;overflow=hidden;points=[[0,0.5],[1,0.5]];portConstraint=eastwest;rotatable=0;whiteSpace=wrap;html=1;" vertex="1" parent="1">
          <mxGeometry x="700" y="240" width="175" height="30" as="geometry" />
        </mxCell>
        <mxCell id="l1M9bcCjxFJwpTehe7LT-26" value="" style="endArrow=none;html=1;rounded=0;endFill=0;startArrow=openThin;startFill=0;dashed=1;" edge="1" parent="1">
          <mxGeometry width="50" height="50" relative="1" as="geometry">
            <mxPoint x="700" y="330" as="sourcePoint" />
            <mxPoint x="880" y="330" as="targetPoint" />
          </mxGeometry>
        </mxCell>
        <mxCell id="l1M9bcCjxFJwpTehe7LT-27" value="4.0.2Return(username,password)" style="text;strokeColor=none;fillColor=none;align=left;verticalAlign=middle;spacingLeft=4;spacingRight=4;overflow=hidden;points=[[0,0.5],[1,0.5]];portConstraint=eastwest;rotatable=0;whiteSpace=wrap;html=1;dashed=1;" vertex="1" parent="1">
          <mxGeometry x="700" y="300" width="190" height="30" as="geometry" />
        </mxCell>
        <mxCell id="l1M9bcCjxFJwpTehe7LT-32" value="" style="html=1;verticalAlign=bottom;endArrow=block;curved=0;rounded=0;align=center;" edge="1" parent="1">
          <mxGeometry width="80" relative="1" as="geometry">
            <mxPoint x="255" y="200" as="sourcePoint" />
            <mxPoint x="435" y="200" as="targetPoint" />
          </mxGeometry>
        </mxCell>
        <mxCell id="l1M9bcCjxFJwpTehe7LT-37" value="" style="endArrow=classic;html=1;rounded=0;" edge="1" parent="1">
          <mxGeometry width="50" height="50" relative="1" as="geometry">
            <mxPoint x="694.5" y="346" as="sourcePoint" />
            <mxPoint x="70" y="346" as="targetPoint" />
          </mxGeometry>
        </mxCell>
        <mxCell id="l1M9bcCjxFJwpTehe7LT-38" value="5.Thông báo đăng nhập thành công" style="text;strokeColor=none;fillColor=none;align=left;verticalAlign=middle;spacingLeft=4;spacingRight=4;overflow=hidden;points=[[0,0.5],[1,0.5]];portConstraint=eastwest;rotatable=0;whiteSpace=wrap;html=1;" vertex="1" parent="1">
          <mxGeometry x="270" y="320" width="290" height="30" as="geometry" />
        </mxCell>
        <mxCell id="l1M9bcCjxFJwpTehe7LT-39" value="" style="html=1;points=[[0,0,0,0,5],[0,1,0,0,-5],[1,0,0,0,5],[1,1,0,0,-5]];perimeter=orthogonalPerimeter;outlineConnect=0;targetShapes=umlLifeline;portConstraint=eastwest;newEdgeStyle={&quot;curved&quot;:0,&quot;rounded&quot;:0};" vertex="1" parent="1">
          <mxGeometry x="245" y="356" width="10" height="40" as="geometry" />
        </mxCell>
        <mxCell id="l1M9bcCjxFJwpTehe7LT-40" value="" style="endArrow=classic;html=1;rounded=0;" edge="1" parent="1" source="l1M9bcCjxFJwpTehe7LT-15">
          <mxGeometry width="50" height="50" relative="1" as="geometry">
            <mxPoint x="620" y="386" as="sourcePoint" />
            <mxPoint x="255" y="386" as="targetPoint" />
          </mxGeometry>
        </mxCell>
        <mxCell id="l1M9bcCjxFJwpTehe7LT-47" value="6.Cho người dùng đăng nhập với tài khoản đăng nhập" style="text;html=1;align=center;verticalAlign=middle;whiteSpace=wrap;rounded=0;" vertex="1" parent="1">
          <mxGeometry x="275" y="361" width="330" height="30" as="geometry" />
        </mxCell>
        <mxCell id="l1M9bcCjxFJwpTehe7LT-48" value="" style="endArrow=classic;html=1;rounded=0;" edge="1" parent="1" source="l1M9bcCjxFJwpTehe7LT-15">
          <mxGeometry width="50" height="50" relative="1" as="geometry">
            <mxPoint x="625" y="436" as="sourcePoint" />
            <mxPoint x="70" y="436" as="targetPoint" />
          </mxGeometry>
        </mxCell>
        <mxCell id="l1M9bcCjxFJwpTehe7LT-49" value="4.1 Thông báo đăng nhập không thành công" style="text;strokeColor=none;fillColor=none;align=left;verticalAlign=middle;spacingLeft=4;spacingRight=4;overflow=hidden;points=[[0,0.5],[1,0.5]];portConstraint=eastwest;rotatable=0;whiteSpace=wrap;html=1;" vertex="1" parent="1">
          <mxGeometry x="155" y="406" width="290" height="30" as="geometry" />
        </mxCell>
        <mxCell id="l1M9bcCjxFJwpTehe7LT-52" value="" style="html=1;points=[[0,0,0,0,5],[0,1,0,0,-5],[1,0,0,0,5],[1,1,0,0,-5]];perimeter=orthogonalPerimeter;outlineConnect=0;targetShapes=umlLifeline;portConstraint=eastwest;newEdgeStyle={&quot;curved&quot;:0,&quot;rounded&quot;:0};" vertex="1" parent="1">
          <mxGeometry x="430" y="460" width="10" height="46" as="geometry" />
        </mxCell>
        <mxCell id="l1M9bcCjxFJwpTehe7LT-55" value="4.2 Đưa người dùng về giao diện đăng nhập" style="text;html=1;align=center;verticalAlign=middle;whiteSpace=wrap;rounded=0;" vertex="1" parent="1">
          <mxGeometry x="445" y="476" width="245" height="30" as="geometry" />
        </mxCell>
        <mxCell id="l1M9bcCjxFJwpTehe7LT-56" value="" style="endArrow=classic;html=1;rounded=0;" edge="1" parent="1">
          <mxGeometry width="50" height="50" relative="1" as="geometry">
            <mxPoint x="690" y="506" as="sourcePoint" />
            <mxPoint x="440" y="506" as="targetPoint" />
          </mxGeometry>
        </mxCell>
        <mxCell id="l1M9bcCjxFJwpTehe7LT-58" value="frame" style="shape=umlFrame;whiteSpace=wrap;html=1;pointerEvents=0;" vertex="1" parent="1">
          <mxGeometry x="90" y="225" width="820" height="325" as="geometry" />
        </mxCell>
        <mxCell id="l1M9bcCjxFJwpTehe7LT-60" value="Đăng nhập hợp lệ(true)" style="text;html=1;align=center;verticalAlign=middle;whiteSpace=wrap;rounded=0;" vertex="1" parent="1">
          <mxGeometry x="170" y="225" width="130" height="30" as="geometry" />
        </mxCell>
      </root>
    </mxGraphModel>
  </diagram>
</mxfile>
